dataset
version=1
nRows=33
nColumns=39
inDegrees=no
endheader
time	sternoclavicular_r2	sternoclavicular_r3	unrotscap_r3	unrotscap_r2	acromioclavicular_r2	acromioclavicular_r3	acromioclavicular_r1	unrothum_r1	unrothum_r3	unrothum_r2	elv_angle	shoulder_elv	shoulder1_r2	shoulder_rot	elbow_flexion	pro_sup	deviation	flexion	cmc_abduction	cmc_flexion	mp_flexion	ip_flexion	mcp2_flexion	mcp2_abduction	pm2_flexion	md2_flexion	mcp3_flexion	mcp3_abduction	pm3_flexion	md3_flexion	mcp4_flexion	mcp4_abduction	pm4_flexion	md4_flexion	mcp5_flexion	mcp5_abduction	pm5_flexion	md5_flexion
1.875000	-0.030243	-0.337286	0.162189	0.181591	0.161784	0.101270	-0.136311	-0.064969	0.080118	0.208270	0.197545	0.027437	0.146525	0.146525	1.584421	1.161728	0.000000	0.000000	0.000000	0.000000	0.000000	0.000000	0.000000	0.000000	0.000000	0.000000	0.000000	0.000000	0.000000	0.000000	0.000000	0.000000	0.000000	0.000000	0.000000	0.000000	0.000000	0.000000
1.880000	-0.030251	-0.337840	0.162793	0.181308	0.161356	0.101935	-0.136672	-0.064482	0.080023	0.207638	0.197022	0.027437	0.146525	0.146525	1.588259	1.161830	0.000000	0.000000	0.000000	0.000000	0.000000	0.000000	0.000000	0.000000	0.000000	0.000000	0.000000	0.000000	0.000000	0.000000	0.000000	0.000000	0.000000	0.000000	0.000000	0.000000	0.000000	0.000000
1.885000	-0.030258	-0.338398	0.163404	0.181017	0.160918	0.102610	-0.137035	-0.063985	0.079925	0.206993	0.196488	0.027437	0.146525	0.146525	1.592117	1.161949	0.000000	0.000000	0.000000	0.000000	0.000000	0.000000	0.000000	0.000000	0.000000	0.000000	0.000000	0.000000	0.000000	0.000000	0.000000	0.000000	0.000000	0.000000	0.000000	0.000000	0.000000	0.000000
1.890000	-0.030264	-0.338961	0.164019	0.180719	0.160470	0.103296	-0.137399	-0.063478	0.079825	0.206335	0.195942	0.027437	0.146525	0.146525	1.595995	1.162084	0.000000	0.000000	0.000000	0.000000	0.000000	0.000000	0.000000	0.000000	0.000000	0.000000	0.000000	0.000000	0.000000	0.000000	0.000000	0.000000	0.000000	0.000000	0.000000	0.000000	0.000000	0.000000
1.895000	-0.030267	-0.339527	0.164639	0.180414	0.160013	0.103992	-0.137763	-0.062961	0.079722	0.205663	0.195385	0.027437	0.146525	0.146525	1.599893	1.162236	0.000000	0.000000	0.000000	0.000000	0.000000	0.000000	0.000000	0.000000	0.000000	0.000000	0.000000	0.000000	0.000000	0.000000	0.000000	0.000000	0.000000	0.000000	0.000000	0.000000	0.000000	0.000000
1.900000	-0.030270	-0.340097	0.165264	0.180101	0.159546	0.104698	-0.138127	-0.062434	0.079615	0.204979	0.194818	0.027437	0.146525	0.146525	1.603810	1.162404	0.000000	0.000000	0.000000	0.000000	0.000000	0.000000	0.000000	0.000000	0.000000	0.000000	0.000000	0.000000	0.000000	0.000000	0.000000	0.000000	0.000000	0.000000	0.000000	0.000000	0.000000	0.000000
1.905000	-0.030270	-0.340669	0.165891	0.179781	0.159070	0.105412	-0.138491	-0.061899	0.079507	0.204282	0.194239	0.027437	0.146525	0.146525	1.607747	1.162587	0.000000	0.000000	0.000000	0.000000	0.000000	0.000000	0.000000	0.000000	0.000000	0.000000	0.000000	0.000000	0.000000	0.000000	0.000000	0.000000	0.000000	0.000000	0.000000	0.000000	0.000000	0.000000
1.910000	-0.030269	-0.341244	0.166522	0.179453	0.158585	0.106136	-0.138853	-0.061354	0.079396	0.203572	0.193649	0.027437	0.146525	0.146525	1.611703	1.162787	0.000000	0.000000	0.000000	0.000000	0.000000	0.000000	0.000000	0.000000	0.000000	0.000000	0.000000	0.000000	0.000000	0.000000	0.000000	0.000000	0.000000	0.000000	0.000000	0.000000	0.000000	0.000000
1.915000	-0.030265	-0.341820	0.167155	0.179117	0.158090	0.106868	-0.139214	-0.060801	0.079282	0.202850	0.193049	0.027437	0.146525	0.146525	1.615678	1.163001	0.000000	0.000000	0.000000	0.000000	0.000000	0.000000	0.000000	0.000000	0.000000	0.000000	0.000000	0.000000	0.000000	0.000000	0.000000	0.000000	0.000000	0.000000	0.000000	0.000000	0.000000	0.000000
1.920000	-0.030260	-0.342397	0.167790	0.178775	0.157586	0.107609	-0.139573	-0.060239	0.079167	0.202116	0.192438	0.027437	0.146525	0.146525	1.619671	1.163231	0.000000	0.000000	0.000000	0.000000	0.000000	0.000000	0.000000	0.000000	0.000000	0.000000	0.000000	0.000000	0.000000	0.000000	0.000000	0.000000	0.000000	0.000000	0.000000	0.000000	0.000000	0.000000
1.925000	-0.030253	-0.342974	0.168426	0.178424	0.157072	0.108357	-0.139929	-0.059670	0.079049	0.201370	0.191817	0.027437	0.146525	0.146525	1.623683	1.163476	0.000000	0.000000	0.000000	0.000000	0.000000	0.000000	0.000000	0.000000	0.000000	0.000000	0.000000	0.000000	0.000000	0.000000	0.000000	0.000000	0.000000	0.000000	0.000000	0.000000	0.000000	0.000000
1.930000	-0.030244	-0.343551	0.169061	0.178067	0.156550	0.109113	-0.140283	-0.059093	0.078929	0.200612	0.191186	0.027437	0.146525	0.146525	1.627713	1.163736	0.000000	0.000000	0.000000	0.000000	0.000000	0.000000	0.000000	0.000000	0.000000	0.000000	0.000000	0.000000	0.000000	0.000000	0.000000	0.000000	0.000000	0.000000	0.000000	0.000000	0.000000	0.000000
1.935000	-0.030232	-0.344128	0.169697	0.177702	0.156020	0.109875	-0.140632	-0.058509	0.078808	0.199843	0.190545	0.027437	0.146525	0.146525	1.631762	1.164010	0.000000	0.000000	0.000000	0.000000	0.000000	0.000000	0.000000	0.000000	0.000000	0.000000	0.000000	0.000000	0.000000	0.000000	0.000000	0.000000	0.000000	0.000000	0.000000	0.000000	0.000000	0.000000
1.940000	-0.030219	-0.344702	0.170331	0.177329	0.155480	0.110644	-0.140977	-0.057918	0.078686	0.199063	0.189895	0.027437	0.146525	0.146525	1.635829	1.164298	0.000000	0.000000	0.000000	0.000000	0.000000	0.000000	0.000000	0.000000	0.000000	0.000000	0.000000	0.000000	0.000000	0.000000	0.000000	0.000000	0.000000	0.000000	0.000000	0.000000	0.000000	0.000000
1.945000	-0.030203	-0.345275	0.170964	0.176950	0.154933	0.111418	-0.141317	-0.057321	0.078562	0.198273	0.189235	0.027437	0.146525	0.146525	1.639915	1.164600	0.000000	0.000000	0.000000	0.000000	0.000000	0.000000	0.000000	0.000000	0.000000	0.000000	0.000000	0.000000	0.000000	0.000000	0.000000	0.000000	0.000000	0.000000	0.000000	0.000000	0.000000	0.000000
1.950000	-0.030185	-0.345846	0.171594	0.176564	0.154377	0.112199	-0.141651	-0.056718	0.078438	0.197472	0.188567	0.027437	0.146525	0.146525	1.644018	1.164915	0.000000	0.000000	0.000000	0.000000	0.000000	0.000000	0.000000	0.000000	0.000000	0.000000	0.000000	0.000000	0.000000	0.000000	0.000000	0.000000	0.000000	0.000000	0.000000	0.000000	0.000000	0.000000
1.955000	-0.030165	-0.346413	0.172221	0.176170	0.153813	0.112984	-0.141979	-0.056109	0.078313	0.196662	0.187890	0.027437	0.146525	0.146525	1.648141	1.165244	0.000000	0.000000	0.000000	0.000000	0.000000	0.000000	0.000000	0.000000	0.000000	0.000000	0.000000	0.000000	0.000000	0.000000	0.000000	0.000000	0.000000	0.000000	0.000000	0.000000	0.000000	0.000000
1.960000	-0.030142	-0.346976	0.172844	0.175771	0.153242	0.113774	-0.142301	-0.055495	0.078188	0.195842	0.187205	0.027437	0.146525	0.146525	1.652281	1.165585	0.000000	0.000000	0.000000	0.000000	0.000000	0.000000	0.000000	0.000000	0.000000	0.000000	0.000000	0.000000	0.000000	0.000000	0.000000	0.000000	0.000000	0.000000	0.000000	0.000000	0.000000	0.000000
1.965000	-0.030117	-0.347535	0.173462	0.175364	0.152663	0.114568	-0.142615	-0.054877	0.078062	0.195013	0.186512	0.027437	0.146525	0.146525	1.656441	1.165939	0.000000	0.000000	0.000000	0.000000	0.000000	0.000000	0.000000	0.000000	0.000000	0.000000	0.000000	0.000000	0.000000	0.000000	0.000000	0.000000	0.000000	0.000000	0.000000	0.000000	0.000000	0.000000
1.970000	-0.030090	-0.348088	0.174075	0.174951	0.152077	0.115365	-0.142922	-0.054254	0.077937	0.194175	0.185812	0.027437	0.146525	0.146525	1.660619	1.166306	0.000000	0.000000	0.000000	0.000000	0.000000	0.000000	0.000000	0.000000	0.000000	0.000000	0.000000	0.000000	0.000000	0.000000	0.000000	0.000000	0.000000	0.000000	0.000000	0.000000	0.000000	0.000000
1.975000	-0.030061	-0.348636	0.174682	0.174532	0.151484	0.116166	-0.143220	-0.053628	0.077813	0.193330	0.185105	0.027437	0.146525	0.146525	1.664815	1.166684	0.000000	0.000000	0.000000	0.000000	0.000000	0.000000	0.000000	0.000000	0.000000	0.000000	0.000000	0.000000	0.000000	0.000000	0.000000	0.000000	0.000000	0.000000	0.000000	0.000000	0.000000	0.000000
1.980000	-0.030029	-0.349178	0.175282	0.174107	0.150885	0.116969	-0.143509	-0.052998	0.077689	0.192476	0.184392	0.027437	0.146525	0.146525	1.669031	1.167074	0.000000	0.000000	0.000000	0.000000	0.000000	0.000000	0.000000	0.000000	0.000000	0.000000	0.000000	0.000000	0.000000	0.000000	0.000000	0.000000	0.000000	0.000000	0.000000	0.000000	0.000000	0.000000
1.985000	-0.029995	-0.349713	0.175875	0.173677	0.150280	0.117774	-0.143789	-0.052366	0.077567	0.191616	0.183672	0.027437	0.146525	0.146525	1.673265	1.167475	0.000000	0.000000	0.000000	0.000000	0.000000	0.000000	0.000000	0.000000	0.000000	0.000000	0.000000	0.000000	0.000000	0.000000	0.000000	0.000000	0.000000	0.000000	0.000000	0.000000	0.000000	0.000000
1.990000	-0.029958	-0.350241	0.176459	0.173240	0.149669	0.118581	-0.144058	-0.051731	0.077447	0.190748	0.182948	0.027437	0.146525	0.146525	1.677519	1.167887	0.000000	0.000000	0.000000	0.000000	0.000000	0.000000	0.000000	0.000000	0.000000	0.000000	0.000000	0.000000	0.000000	0.000000	0.000000	0.000000	0.000000	0.000000	0.000000	0.000000	0.000000	0.000000
1.995000	-0.029919	-0.350761	0.177034	0.172799	0.149053	0.119389	-0.144317	-0.051094	0.077328	0.189875	0.182218	0.027437	0.146525	0.146525	1.681792	1.168309	0.000000	0.000000	0.000000	0.000000	0.000000	0.000000	0.000000	0.000000	0.000000	0.000000	0.000000	0.000000	0.000000	0.000000	0.000000	0.000000	0.000000	0.000000	0.000000	0.000000	0.000000	0.000000
2.000000	-0.029878	-0.351273	0.177600	0.172352	0.148431	0.120198	-0.144564	-0.050455	0.077213	0.188995	0.181483	0.027437	0.146525	0.146525	1.686084	1.168742	0.000000	0.000000	0.000000	0.000000	0.000000	0.000000	0.000000	0.000000	0.000000	0.000000	0.000000	0.000000	0.000000	0.000000	0.000000	0.000000	0.000000	0.000000	0.000000	0.000000	0.000000	0.000000
2.005000	-0.029834	-0.351776	0.178156	0.171901	0.147805	0.121007	-0.144800	-0.049816	0.077099	0.188111	0.180744	0.027437	0.146525	0.146525	1.690396	1.169184	0.000000	0.000000	0.000000	0.000000	0.000000	0.000000	0.000000	0.000000	0.000000	0.000000	0.000000	0.000000	0.000000	0.000000	0.000000	0.000000	0.000000	0.000000	0.000000	0.000000	0.000000	0.000000
2.010000	-0.029788	-0.352270	0.178700	0.171445	0.147174	0.121816	-0.145024	-0.049176	0.076989	0.187222	0.180002	0.027437	0.146525	0.146525	1.694727	1.169636	0.000000	0.000000	0.000000	0.000000	0.000000	0.000000	0.000000	0.000000	0.000000	0.000000	0.000000	0.000000	0.000000	0.000000	0.000000	0.000000	0.000000	0.000000	0.000000	0.000000	0.000000	0.000000
2.015000	-0.029740	-0.352753	0.179234	0.170985	0.146540	0.122624	-0.145235	-0.048535	0.076883	0.186328	0.179257	0.027437	0.146525	0.146525	1.699077	1.170097	0.000000	0.000000	0.000000	0.000000	0.000000	0.000000	0.000000	0.000000	0.000000	0.000000	0.000000	0.000000	0.000000	0.000000	0.000000	0.000000	0.000000	0.000000	0.000000	0.000000	0.000000	0.000000
2.020000	-0.029690	-0.353227	0.179755	0.170521	0.145901	0.123431	-0.145433	-0.047895	0.076780	0.185431	0.178509	0.027437	0.146525	0.146525	1.703447	1.170567	0.000000	0.000000	0.000000	0.000000	0.000000	0.000000	0.000000	0.000000	0.000000	0.000000	0.000000	0.000000	0.000000	0.000000	0.000000	0.000000	0.000000	0.000000	0.000000	0.000000	0.000000	0.000000
2.025000	-0.029638	-0.353689	0.180263	0.170053	0.145260	0.124236	-0.145618	-0.047256	0.076682	0.184531	0.177759	0.027437	0.146525	0.146525	1.707837	1.171046	0.000000	0.000000	0.000000	0.000000	0.000000	0.000000	0.000000	0.000000	0.000000	0.000000	0.000000	0.000000	0.000000	0.000000	0.000000	0.000000	0.000000	0.000000	0.000000	0.000000	0.000000	0.000000
2.030000	-0.029583	-0.354141	0.180759	0.169582	0.144616	0.125040	-0.145788	-0.046617	0.076588	0.183629	0.177008	0.027437	0.146525	0.146525	1.712247	1.171533	0.000000	0.000000	0.000000	0.000000	0.000000	0.000000	0.000000	0.000000	0.000000	0.000000	0.000000	0.000000	0.000000	0.000000	0.000000	0.000000	0.000000	0.000000	0.000000	0.000000	0.000000	0.000000
2.035000	-0.029527	-0.354581	0.181240	0.169108	0.143969	0.125840	-0.145944	-0.045981	0.076500	0.182724	0.176255	0.027437	0.146525	0.146525	1.716676	1.172027	0.000000	0.000000	0.000000	0.000000	0.000000	0.000000	0.000000	0.000000	0.000000	0.000000	0.000000	0.000000	0.000000	0.000000	0.000000	0.000000	0.000000	0.000000	0.000000	0.000000	0.000000	0.000000
